PathFileType	4	(x/y/z)	S04_SL_Cal.trc
DataRate	CameraRate	NumFrames	NumMarkers	Units	OrigDataRate	OrigDataStartFrame	OrigNumFrames
240	240	7	51	mm	240	2101	2400
Frame#	Time	Sternum			R.Acromium			L.Acromium			Top.Head			R.ASIS			L.ASIS			R.PSIS			L.PSIS			R.Great.Tro			L.Great.Tro			R.Iliac.Crest			L.Iliac.Crest			V.Sacral			R.Thigh.Upper.Post			R.Thigh.Lower.Ant			R.Thigh.Lower.Post			R.Thigh.Upper.Ant			R.Knee.Lat			R.Knee.Med			R.Shank.Upper.Post			R.Shank.Lower.Ant			R.Shank.Lower.Post			R.Shank.Upper.Ant			R.Ankle.Lat			R.Ankle.Med			R.Heel.Upper			R.Heel.Med			R.Heel.Lat			R.Toe.Lat			R.Toe.Med			R.Toe.Tip			L.Thigh.Upper.Post			L.Thigh.Lower.Ant			L.Thigh.Lower.Post			L.Thigh.Upper.Ant			L.Knee.Lat			L.Knee.Med			L.Shank.Upper.Post			L.Shank.Lower.Ant			L.Shank.Lower.Post			L.Shank.Upper.Ant			L.Ankle.Lat			L.Ankle.Med			L.Heel.Upper			L.Heel.Med			L.Heel.Lat			L.Toe.Lat			L.Toe.Med			L.Toe.Tip			Cervical.Spine			Back			
		X1	Y1	Z1	X2	Y2	Z2	X3	Y3	Z3	X4	Y4	Z4	X5	Y5	Z5	X6	Y6	Z6	X7	Y7	Z7	X8	Y8	Z8	X9	Y9	Z9	X10	Y10	Z10	X11	Y11	Z11	X12	Y12	Z12	X13	Y13	Z13	X14	Y14	Z14	X15	Y15	Z15	X16	Y16	Z16	X17	Y17	Z17	X18	Y18	Z18	X19	Y19	Z19	X20	Y20	Z20	X21	Y21	Z21	X22	Y22	Z22	X23	Y23	Z23	X24	Y24	Z24	X25	Y25	Z25	X26	Y26	Z26	X27	Y27	Z27	X28	Y28	Z28	X29	Y29	Z29	X30	Y30	Z30	X31	Y31	Z31	X32	Y32	Z32	X33	Y33	Z33	X34	Y34	Z34	X35	Y35	Z35	X36	Y36	Z36	X37	Y37	Z37	X38	Y38	Z38	X39	Y39	Z39	X40	Y40	Z40	X41	Y41	Z41	X42	Y42	Z42	X43	Y43	Z43	X44	Y44	Z44	X45	Y45	Z45	X46	Y46	Z46	X47	Y47	Z47	X48	Y48	Z48	X49	Y49	Z49	X50	Y50	Z50	X51	Y51	Z51	

2101	8.75	354.9	1292.5	276.66	212.88	1521.4	451.02	199.8	1509.5	111.75	211.65	1838.4	269.7	331.94	1001.8	416.27	336.75	1013.9	166.42	123.21	1047.5	314.6	132.02	1050.2	232.7	234.41	929	480.38	214.42	937.16	100.68	250.17	1097.6	458.04	236.96	1101.6	118.84	104.31	1008.3	273.5	205.16	676	492.94	271.86	583.75	466.48	195.86	585.31	486.51	291.63	692.62	477.69	213.05	515.63	479.79	191.74	499	354.8	136.32	294.24	495.64	208.59	215.57	465.26	135.59	223.06	484.83	201.9	287.05	483.07	155.67	108.26	476.04	182.6	114.68	389.05	96.921	74.118	419.7	109.19	44.047	390.66	97.693	42.168	454.34	262.19	40.013	519.29	311.52	40.585	403.96	368.59	58.342	458.61	168.03	713.09	96.542	236.06	607.19	90.555	165.64	623.55	99.005	233.67	697.57	82.049	192.64	522.28	96.264	193.67	499.91	218.34	109.87	343.43	81.681	184.51	262.16	74.265	120.59	265.66	83.359	173.08	338.16	73.235	176.1	106.01	82.082	185.4	109.19	173.36	106.1	71.91	122.07	112.78	46.926	155.6	110.57	44.441	94.179	293.76	43.16	52.997	326.46	49.324	168.3	382.94	59.152	118.11	165.06	1555.9	286.04	96.85	1298.8	266.94
2102	8.7542	354.91	1292.5	276.66	212.89	1521.4	451.03	199.82	1509.5	111.75	211.67	1838.4	269.72	331.94	1001.8	416.27	336.75	1013.9	166.42	123.21	1047.5	314.6	132.02	1050.2	232.7	234.41	929	480.38	214.42	937.17	100.68	250.17	1097.6	458.03	236.96	1101.6	118.84	104.31	1008.3	273.49	205.16	676.01	492.94	271.86	583.75	466.48	195.87	585.31	486.51	291.63	692.62	477.69	213.05	515.63	479.79	191.74	499	354.8	136.32	294.24	495.64	208.59	215.57	465.26	135.56	223.07	484.82	201.91	287.05	483.07	155.67	108.26	476.04	182.6	114.68	389.05	96.921	74.118	419.7	109.19	44.047	390.66	97.693	42.168	454.34	262.19	40.012	519.29	311.52	40.584	403.96	368.59	58.342	458.61	168.04	713.09	96.544	236.07	607.19	90.556	165.65	623.55	99.006	233.67	697.57	82.049	192.65	522.28	96.264	193.67	499.91	218.34	109.87	343.43	81.68	184.51	262.16	74.265	120.6	265.67	83.358	173.09	338.16	73.236	176.1	106.02	82.079	185.41	109.19	173.36	106.1	71.912	122.07	112.78	46.927	155.6	110.57	44.442	94.18	293.76	43.16	52.996	326.46	49.322	168.3	382.94	59.151	118.11	165.08	1555.9	286.04	96.857	1298.8	266.94
2103	8.7583	354.91	1292.5	276.66	212.9	1521.4	451.03	199.83	1509.5	111.76	211.69	1838.4	269.73	331.95	1001.8	416.27	336.75	1013.9	166.42	123.21	1047.5	314.61	132.02	1050.2	232.7	234.41	929	480.38	214.42	937.17	100.68	250.18	1097.6	458.03	236.97	1101.6	118.84	104.32	1008.3	273.48	205.16	676.01	492.94	271.86	583.75	466.48	195.87	585.31	486.51	291.63	692.62	477.69	213.05	515.63	479.79	191.75	499	354.8	136.32	294.24	495.64	208.59	215.57	465.26	135.54	223.08	484.82	201.91	287.05	483.07	155.67	108.26	476.04	182.6	114.68	389.05	96.922	74.118	419.7	109.19	44.047	390.65	97.693	42.169	454.34	262.19	40.012	519.29	311.52	40.583	403.96	368.59	58.341	458.61	168.04	713.1	96.545	236.07	607.19	90.556	165.65	623.55	99.008	233.68	697.57	82.049	192.65	522.28	96.264	193.67	499.91	218.34	109.88	343.43	81.68	184.51	262.16	74.266	120.6	265.67	83.358	173.09	338.16	73.238	176.1	106.02	82.077	185.41	109.19	173.36	106.1	71.914	122.07	112.79	46.927	155.6	110.57	44.443	94.18	293.76	43.16	52.996	326.46	49.321	168.3	382.94	59.149	118.11	165.09	1555.9	286.05	96.865	1298.8	266.94
2104	8.7625	354.92	1292.5	276.66	212.91	1521.4	451.03	199.84	1509.5	111.76	211.7	1838.4	269.74	331.95	1001.8	416.27	336.76	1013.9	166.42	123.22	1047.5	314.61	132.03	1050.2	232.7	234.41	929	480.38	214.43	937.17	100.68	250.18	1097.6	458.03	236.97	1101.6	118.84	104.32	1008.3	273.47	205.17	676.01	492.94	271.86	583.75	466.48	195.87	585.31	486.51	291.64	692.62	477.69	213.05	515.64	479.79	191.75	499	354.8	136.32	294.24	495.64	208.59	215.57	465.26	135.51	223.09	484.82	201.91	287.05	483.07	155.67	108.26	476.04	182.6	114.68	389.05	96.922	74.119	419.7	109.19	44.047	390.65	97.693	42.17	454.34	262.19	40.012	519.29	311.52	40.583	403.96	368.59	58.341	458.61	168.04	713.1	96.547	236.08	607.19	90.556	165.66	623.55	99.01	233.68	697.57	82.05	192.66	522.28	96.265	193.67	499.91	218.34	109.88	343.43	81.679	184.52	262.16	74.267	120.61	265.67	83.357	173.1	338.16	73.239	176.1	106.03	82.074	185.41	109.19	173.36	106.1	71.916	122.07	112.79	46.928	155.6	110.57	44.445	94.18	293.76	43.161	52.996	326.46	49.32	168.3	382.94	59.148	118.11	165.11	1555.9	286.05	96.872	1298.8	266.95
2105	8.7667	354.92	1292.5	276.66	212.93	1521.4	451.04	199.85	1509.5	111.77	211.72	1838.4	269.75	331.95	1001.8	416.28	336.76	1013.9	166.42	123.22	1047.5	314.61	132.03	1050.2	232.7	234.41	929	480.38	214.43	937.17	100.68	250.18	1097.6	458.03	236.98	1101.6	118.84	104.33	1008.3	273.47	205.17	676.01	492.94	271.86	583.75	466.48	195.87	585.3	486.51	291.64	692.62	477.69	213.05	515.63	479.79	191.75	499	354.8	136.32	294.24	495.64	208.59	215.57	465.26	135.48	223.1	484.81	201.91	287.05	483.06	155.67	108.26	476.04	182.6	114.68	389.05	96.923	74.119	419.71	109.19	44.047	390.65	97.693	42.17	454.34	262.19	40.012	519.29	311.52	40.582	403.95	368.59	58.34	458.61	168.05	713.1	96.549	236.08	607.2	90.557	165.66	623.55	99.011	233.69	697.58	82.05	192.66	522.28	96.265	193.67	499.91	218.34	109.89	343.43	81.679	184.52	262.16	74.267	120.61	265.67	83.357	173.1	338.16	73.24	176.09	106.04	82.072	185.41	109.19	173.36	106.1	71.917	122.07	112.79	46.928	155.6	110.57	44.446	94.18	293.76	43.161	52.996	326.46	49.319	168.3	382.95	59.147	118.11	165.12	1555.9	286.05	96.879	1298.8	266.95
2106	8.7708	354.93	1292.5	276.66	212.94	1521.4	451.04	199.86	1509.5	111.77	211.74	1838.4	269.76	331.96	1001.8	416.28	336.76	1013.9	166.43	123.22	1047.5	314.61	132.04	1050.2	232.7	234.42	929	480.38	214.44	937.17	100.68	250.19	1097.6	458.03	236.98	1101.6	118.85	104.33	1008.3	273.46	205.17	676.01	492.94	271.86	583.75	466.48	195.88	585.3	486.51	291.64	692.62	477.69	213.06	515.63	479.79	191.75	499	354.8	136.32	294.24	495.64	208.59	215.57	465.26	135.45	223.11	484.81	201.9	287.04	483.04	155.67	108.26	476.04	182.6	114.68	389.05	96.923	74.12	419.71	109.19	44.047	390.65	97.693	42.17	454.34	262.19	40.012	519.29	311.52	40.582	403.95	368.59	58.34	458.61	168.05	713.1	96.551	236.08	607.2	90.558	165.67	623.55	99.013	233.69	697.58	82.051	192.67	522.28	96.266	193.68	499.91	218.34	109.89	343.43	81.678	184.53	262.16	74.268	120.62	265.67	83.357	173.11	338.16	73.242	176.09	106.04	82.07	185.41	109.2	173.36	106.1	71.918	122.07	112.79	46.929	155.6	110.58	44.447	94.181	293.76	43.161	52.996	326.46	49.318	168.3	382.95	59.146	118.11	165.13	1555.9	286.06	96.886	1298.8	266.95
2107	8.775	354.93	1292.5	276.66	212.95	1521.4	451.04	199.87	1509.5	111.77	211.75	1838.4	269.77	331.96	1001.8	416.28	336.76	1013.9	166.43	123.23	1047.5	314.61	132.04	1050.2	232.71	234.42	929	480.38	214.44	937.17	100.68	250.19	1097.6	458.03	236.99	1101.6	118.85	104.34	1008.3	273.46	205.17	676.01	492.94	271.87	583.75	466.48	195.88	585.3	486.51	291.64	692.62	477.69	213.06	515.63	479.79	191.75	499	354.8	136.32	294.25	495.64	208.59	215.57	465.26	135.42	223.12	484.8	201.9	287.04	483.03	155.67	108.26	476.04	182.6	114.68	389.05	96.924	74.12	419.71	109.19	44.047	390.65	97.693	42.17	454.34	262.19	40.012	519.3	311.52	40.581	403.95	368.59	58.34	458.61	168.06	713.1	96.553	236.09	607.2	90.558	165.67	623.55	99.014	233.7	697.58	82.052	192.67	522.29	96.267	193.68	499.92	218.34	109.9	343.44	81.678	184.53	262.16	74.27	120.62	265.67	83.356	173.11	338.16	73.244	176.09	106.05	82.068	185.41	109.2	173.36	106.1	71.92	122.07	112.79	46.929	155.6	110.58	44.449	94.181	293.76	43.162	52.996	326.46	49.317	168.3	382.95	59.145	118.11	165.15	1555.9	286.06	96.893	1298.8	266.96
